<?xml version="1.0" encoding="utf-8"?>
<!-- Svg Vector Icons : http://www.onlinewebfonts.com/icon -->
<!DOCTYPE svg PUBLIC "-//W3C//DTD SVG 1.1//EN" "http://www.w3.org/Graphics/SVG/1.1/DTD/svg11.dtd">
<svg version="1.1" xmlns="http://www.w3.org/2000/svg" xmlns:xlink="http://www.w3.org/1999/xlink" x="0px" y="0px" viewBox="0 0 256 256" enable-background="new 0 0 256 256" xml:space="preserve">
<metadata> Svg Vector Icons : http://www.onlinewebfonts.com/icon </metadata>
<g><g><g><path fill="#FFDB6E" d="M172.9,26.2c-5.6,1.1-11.3,5.4-13.7,10.5c-0.8,1.6-2.3,6.6-3.4,11.2c-1.4,5.6-2.3,8.4-2.8,8.6c-0.4,0.2-14.6,5.3-31.6,11.3c-17,6.1-31.5,11.3-32.2,11.7c-1.1,0.6-1.6,1.6-3.4,6.9c-1.2,3.4-11.6,33.6-23.1,67c-11.5,33.4-21,61.4-21,62.1c0,1.1,1.2,2.5,6.5,7.9c3.6,3.6,6.9,6.7,7.5,6.8c1.4,0.3,134.9-45.7,136.2-47c0.7-0.7,5-12.1,12.4-32.9c6.2-17.6,11.4-32,11.5-32.1s4.1-1.2,9-2.4c9.9-2.5,11.9-3.4,15.2-6.4c4.4-4.1,6.3-9,6-15.4c-0.2-3.3-0.5-4.4-1.9-7.3c-1.6-3.2-3.4-5.1-28.8-30.5c-29.1-29-29-28.9-34.8-30C177.5,25.7,175.8,25.7,172.9,26.2z M182.9,35.3c2.5,1.5,53.5,52.6,54.5,54.7c1.7,3.4,1.4,8.5-0.8,11.8c-2.3,3.4-4.2,4.3-13.8,6.7l-8.8,2.2l-26.4-26.4L161.2,58l2.1-8.2c1.1-4.6,2.4-9,3-10C169.2,34,177,31.8,182.9,35.3z M182.3,89.9l26.1,26.2l-8.2,22.8c-4.5,12.5-9.4,26.4-11,30.8c-2.3,6.5-3.1,8.2-3.9,8.4c-0.5,0.2-29.5,10.1-64.3,22.1c-53.1,18.3-63.4,21.7-63.9,21.2c-0.5-0.5,5.2-6.5,35.7-36.9l36.3-36.3l3,1.4c2.7,1.2,3.4,1.4,8.2,1.4c5,0,5.3,0,8.7-1.7c4.3-2.1,6.9-4.8,9-9.2c1.4-3,1.5-3.5,1.5-8.3c0-4.9-0.1-5.4-1.5-8.3c-7.3-14.8-27.9-14.9-35.2-0.2c-2.8,5.6-2.7,12.8,0.3,17.9l0.8,1.5l-36.5,36.5c-30,30-36.6,36.4-37,35.8c-0.5-0.5,4-13.8,21.6-64.9l22.2-64.3l30.5-10.9c16.8-6,30.8-10.9,31-10.9C156,63.7,167.9,75.5,182.3,89.9z M145.6,121c0.9,0.5,2.6,1.9,3.6,3c5.8,6.6,2.5,17-6,19.1c-11.8,2.9-19.8-11.2-11.3-19.7C135.7,119.6,141.1,118.7,145.6,121z"/><path fill="#FFDB6E" d="M11.4,30.7c-0.5,0.5-1.1,1.5-1.3,2.3c-0.2,1.3,0,1.7,1.1,3c1.7,1.6,3.2,1.8,5,0.4c1.5-1.2,1.7-4.1,0.3-5.6C15.3,29.7,12.7,29.6,11.4,30.7z"/><path fill="#FFDB6E" d="M27.3,33.4c-4.2,2.2-1.6,8.4,2.8,6.9c1.6-0.6,2.3-1.6,2.3-3.6C32.4,33.9,29.6,32.1,27.3,33.4z"/><path fill="#FFDB6E" d="M37,44.9c-1.2,1.2-1.4,1.7-1.1,3c0.4,1.9,1.8,3.1,3.9,3.1c3.5,0,4.9-4.1,2.3-6.5C40.4,43.1,38.7,43.3,37,44.9z"/><path fill="#FFDB6E" d="M43.4,58.5c-1.4,0.2-3,2.3-3,3.7c0,0.7,0.6,1.8,1.4,2.6c1.2,1.2,1.7,1.4,3,1.1c2.6-0.5,4-3.5,2.7-5.9C46.9,59,44.9,58.2,43.4,58.5z"/><path fill="#FFDB6E" d="M43.7,74.2c-3.6,1.8-2.4,7.1,1.7,7.1c2.2,0,3.6-1.4,3.6-3.7C49.1,74.8,46.2,72.9,43.7,74.2z"/><path fill="#FFDB6E" d="M42.9,89.5c-2.1,0.8-2.7,4.5-1.1,6.1c1.5,1.5,4.4,1.3,5.6-0.3c1.4-1.7,1.2-3.3-0.4-4.9C45.6,89,44.7,88.8,42.9,89.5z"/><path fill="#FFDB6E" d="M40.2,105.7c-2.3,2.3-0.7,6.3,2.6,6.3c1.9,0,3.8-1.8,3.8-3.8s-1.8-3.8-3.8-3.8C41.9,104.6,40.9,105,40.2,105.7z"/><path fill="#FFDB6E" d="M37.6,121.3c-1.6,2.1-1.2,4.5,0.9,5.6c1.9,1,3.1,0.9,4.4-0.5c2.5-2.4,0.8-6.3-2.7-6.3C39,120.1,38.3,120.4,37.6,121.3z"/><path fill="#FFDB6E" d="M35.5,136.1c-0.9,0.8-1.2,1.4-1.2,2.8c0,2.3,1.3,3.7,3.5,3.7c2,0,3.5-1.2,3.9-3.1c0.2-1.3,0-1.7-1.1-3C38.8,134.9,37.3,134.7,35.5,136.1z"/><path fill="#FFDB6E" d="M32.7,151.8c-2.4,2.3-0.5,6.3,3,6.3c0.5,0,1.4-0.4,2.1-1c0.9-0.8,1.2-1.4,1.2-2.7C39,150.9,35.1,149.3,32.7,151.8z"/><path fill="#FFDB6E" d="M31.5,166.2c-2.4,1.2-2.9,4.5-0.9,6.2c1.3,1.1,4.1,1,5.3-0.2C38.8,169.4,35.1,164.3,31.5,166.2z"/><path fill="#FFDB6E" d="M29.7,181.9c-1.5,1-2,2.7-1.5,4.4c1.4,3.9,7.2,2.9,7.2-1.2C35.4,181.9,32.2,180.1,29.7,181.9z"/><path fill="#FFDB6E" d="M29.5,198c-1.2,1.2-1.4,1.7-1.1,3c0.4,1.9,1.8,3.1,3.9,3.1c2.2,0,3.5-1.4,3.5-3.7c0-1.5-0.3-2.1-1.2-2.8C32.8,196.2,31.2,196.4,29.5,198z"/><path fill="#FFDB6E" d="M34.5,212.4c-1,1-1.1,1.5-0.9,2.9c0.5,3.1,3.6,4.4,6.1,2.4c0.9-0.8,1.2-1.4,1.2-2.7C40.9,211.4,37,209.8,34.5,212.4z"/></g></g></g>
</svg>